<svg width="42" height="54" viewBox="0 0 42 54" fill="none" xmlns="http://www.w3.org/2000/svg">
  <defs>
    <linearGradient id="bodyGradient" x1="8" y1="18" x2="34" y2="44" gradientUnits="userSpaceOnUse">
      <stop offset="0" stop-color="#7FDB4F" />
      <stop offset="1" stop-color="#4E9F2E" />
    </linearGradient>
    <linearGradient id="bellyGradient" x1="12" y1="26" x2="30" y2="40" gradientUnits="userSpaceOnUse">
      <stop offset="0" stop-color="#F8FBF1" />
      <stop offset="1" stop-color="#D3E0C6" />
    </linearGradient>
    <filter id="shadow" x="2" y="34" width="38" height="18" filterUnits="userSpaceOnUse" color-interpolation-filters="sRGB">
      <feGaussianBlur in="SourceAlpha" stdDeviation="2" result="blur" />
      <feOffset dy="2" />
      <feComposite in2="SourceAlpha" operator="out" />
      <feColorMatrix type="matrix" values="0 0 0 0 0  0 0 0 0 0  0 0 0 0 0  0 0 0 0.25 0" />
      <feBlend in="SourceGraphic" />
    </filter>
  </defs>
  <g filter="url(#shadow)">
    <ellipse cx="21" cy="43" rx="13" ry="4" fill="#0C1A09" fill-opacity="0.35" />
  </g>
  <rect x="11" y="17" width="20" height="24" rx="10" fill="url(#bodyGradient)" stroke="#1F4C1C" stroke-width="1.5" />
  <rect x="14.5" y="24" width="13" height="11" rx="5.5" fill="url(#bellyGradient)" />
  <path d="M9 30C9 27 11 25 13.5 25" stroke="#1F4C1C" stroke-width="1.4" stroke-linecap="round" />
  <path d="M33 30C33 27 31 25 28.5 25" stroke="#1F4C1C" stroke-width="1.4" stroke-linecap="round" />
  <path d="M18 41L15 47" stroke="#163A13" stroke-width="2.5" stroke-linecap="round" />
  <path d="M24 41L27 47" stroke="#163A13" stroke-width="2.5" stroke-linecap="round" />
  <path d="M26 38C26 39.1046 24.6569 40 23 40H19C17.3431 40 16 39.1046 16 38" fill="#10280D" />
  <ellipse cx="21" cy="15" rx="11" ry="8" fill="#FDE7C2" stroke="#C39B5D" stroke-width="1.5" />
  <path d="M12.5 15C13 13 14.5 12 16 12" stroke="#1F4C1C" stroke-width="1.4" stroke-linecap="round" />
  <path d="M29.5 15C29 13 27.5 12 26 12" stroke="#1F4C1C" stroke-width="1.4" stroke-linecap="round" />
  <circle cx="17" cy="16" r="1.7" fill="#0C1A09" />
  <circle cx="25" cy="16" r="1.7" fill="#0C1A09" />
  <path d="M18 19C18.5 20.2 19.5 20.8 21 20.8C22.5 20.8 23.5 20.2 24 19" stroke="#A55B1C" stroke-width="1.2" stroke-linecap="round" />
  <path d="M18 6.5C18.5 4.5 20.2 3 22.5 3C25.9853 3 28.5 5.46243 28.5 8.5C28.5 10.5 27 11.7 25 12.5" stroke="#1F4C1C" stroke-width="1.5" stroke-linecap="round" />
  <path d="M11 10C12 6.5 15.5 4 19.5 4" stroke="#1F4C1C" stroke-width="1.5" stroke-linecap="round" />
</svg>
